<?xml version="1.0" standalone="yes"?>

<svg version="1.1" viewBox="0.0 0.0 671.0 644.0" fill="none" stroke="none" stroke-linecap="square" stroke-miterlimit="10" xmlns="http://www.w3.org/2000/svg" xmlns:xlink="http://www.w3.org/1999/xlink"><clipPath id="p.0"><path d="m0 0l671.0 0l0 644.0l-671.0 0l0 -644.0z" clip-rule="nonzero"></path></clipPath><g clip-path="url(#p.0)"><path fill="#000000" fill-opacity="0.0" d="m0 0l671.8635 0l0 644.20996l-671.8635 0z" fill-rule="nonzero"></path><path fill="#b7b7b7" d="m36.669292 198.65993l0 0c0 -31.270676 25.349888 -56.62056 56.620556 -56.62056l226.47543 0l0 0c15.016693 0 29.418365 5.9653625 40.036774 16.583786c10.618408 10.618408 16.58377 25.020065 16.58377 40.036774l0 277.46753c0 31.27066 -25.349884 56.620575 -56.620544 56.620575l-226.47543 0c-31.270668 0 -56.620556 -25.349915 -56.620556 -56.620575z" fill-rule="nonzero"></path><path fill="#666666" d="m244.92389 141.3622l289.29132 0l0 390.70868l-289.29132 0z" fill-rule="nonzero"></path><path fill="#ffffff" d="m219.8189 442.6063l31.055115 0l0 90.80313l-31.055115 0z" fill-rule="nonzero"></path><path fill="#666666" d="m322.87927 193.337l0 0c0 -28.704895 23.269897 -51.974808 51.974792 -51.974808l207.89294 0l0 0c13.784546 0 27.004578 5.4759064 36.75171 15.223068c9.747192 9.747162 15.2230835 22.967163 15.2230835 36.75174l0 286.75906c0 28.704895 -23.269897 51.974792 -51.974792 51.974792l-207.89294 0c-28.704895 0 -51.974792 -23.269897 -51.974792 -51.974792z" fill-rule="nonzero"></path><path fill="#ffffff" d="m332.3164 141.39676l-25.66687 115.12659l-23.514038 -1.658844l-6.4413147 110.21881l-25.131897 0.5154419l-32.092896 168.6911l-31.312714 -170.85492l29.266144 1.278656l-18.097946 -107.9823l36.69986 -1.9126892l-19.415894 -113.59808z" fill-rule="nonzero"></path><path fill="#f1c40f" d="m364.16513 141.00319l-25.82605 114.767914l-23.38742 -1.5929871l-6.688141 109.82939l-25.00238 0.5773926l-32.354874 168.15155l-30.715195 -170.1464l29.110565 1.199646l-17.72911 -107.53882l36.513687 -1.9988403l-19.02591 -113.13057z" fill-rule="nonzero"></path><path fill="#000000" fill-opacity="0.0" d="m36.669292 509.8189l0 -344.8504l183.1496 0l0 344.8504z" fill-rule="nonzero"></path><path fill="#ffffff" d="m168.5493 430.2687l-44.250008 0l0 40.0l44.250008 0l0 12.5l-91.56251 0l0 -12.5l36.6875 0l0 -40.0l-36.6875 0l0 -12.5l91.56251 0l0 12.5zm0 -83.25l-19.3125 6.3125l0 34.0625l19.3125 6.75l0 14.0l-92.81251 -37.1875l0 -3.3125l92.81251 -34.5l0 13.875zm-68.81251 22.875l40.312508 14.1875l0 -27.1875l-40.312508 13.0zm-19.375 -104.8125l10.6875 4.1875q-4.375 6.0 -4.375 18.875q0 12.0625 10.375 19.34375q10.375 7.28125 26.75 7.28125q15.625008 0 25.343758 -7.46875q9.71875 -7.46875 9.71875 -19.28125q0 -12.875 -9.125 -19.8125l9.5625 -6.875q10.8125 10.875 10.8125 28.0q0 17.9375 -12.9375 28.25q-12.9375 10.3125 -34.125008 10.3125q-20.5 0 -34.0625 -11.0q-13.5625 -11.0 -13.5625 -28.4375q0 -14.9375 4.9375 -23.375zm88.18751 -68.625015l-42.125008 25.8125l17.312508 12.1875l24.8125 0l0 12.5l-91.56251 0l0 -12.5l49.8125 0l-49.8125 -34.0l0 -13.9375l39.6875 27.375l51.875008 -31.25l0 13.8125z" fill-rule="nonzero"></path><path fill="#000000" fill-opacity="0.0" d="m289.8714 199.3937l344.8504 0l0 332.6614l-344.8504 0z" fill-rule="nonzero"></path><path fill="#ffffff" d="m333.92776 265.7218l22.75 0l0 114.109375q0 15.25 9.671875 25.09375q9.671875 9.828125 25.609375 9.828125q16.828125 0 26.5 -9.546875q9.671875 -9.5625 9.671875 -25.9375l0 -113.546875l22.75 0l0 115.9375q0 25.25 -15.765625 39.421875q-15.75 14.15625 -42.9375 14.15625q-27.984375 0 -43.125 -13.875q-15.125 -13.890625 -15.125 -39.828125l0 -115.8125zm257.67368 6.140625l-7.625 19.453125q-10.921875 -7.953125 -34.359375 -7.953125q-21.953125 0 -35.203125 18.890625q-13.2499695 18.875 -13.2499695 48.6875q0 28.4375 13.5937195 46.125q13.59375 17.6875 35.09375 17.6875q23.4375 0 36.0625 -16.609375l12.515625 17.40625q-19.796875 19.6875 -50.96875 19.6875q-32.65625 0 -51.421844 -23.546875q-18.765625 -23.546875 -18.765625 -62.125q0 -37.3125 20.015625 -62.0q20.03122 -24.6875 51.765594 -24.6875q27.1875 0 42.546875 8.984375z" fill-rule="nonzero"></path></g></svg>

