<?xml version="1.0" encoding="utf-8"?>
<!-- Generator: Adobe Illustrator 17.0.0, SVG Export Plug-In . SVG Version: 6.00 Build 0)  -->
<!DOCTYPE svg PUBLIC "-//W3C//DTD SVG 1.1//EN" "http://www.w3.org/Graphics/SVG/1.1/DTD/svg11.dtd">
<svg version="1.1" id="Layer_1" xmlns="http://www.w3.org/2000/svg" xmlns:xlink="http://www.w3.org/1999/xlink" x="0px" y="0px"
	 width="288px" height="108px" viewBox="0 0 288 108" enable-background="new 0 0 288 108" xml:space="preserve">
<g>
	<g>
		<path d="M36,37.8h3.5V46c3.2-4.8,7.9-9.1,15.1-9.1c8.9,0,17.9,7.1,17.9,19.1v0.1c0,12-9,19.2-17.9,19.2c-7.3,0-12.1-4.2-15.1-8.8
			v19.4H36V37.8z M68.7,56.3v-0.1c0-9.6-6.7-15.8-14.4-15.8c-7.6,0-15,6.4-15,15.8v0.1c0,9.4,7.3,15.8,15,15.8
			C62.3,72,68.7,66.2,68.7,56.3z"/>
		<path d="M124,66.7v7.9h-3.5V22h3.5v24c3.2-4.8,7.9-9.1,15.1-9.1c8.9,0,17.9,7.1,17.9,19.1v0.1c0,12-9,19.2-17.9,19.2
			C131.8,75.4,127,71.3,124,66.7z M153.2,56.3v-0.1c0-9.6-6.7-15.8-14.4-15.8c-7.6,0-15,6.4-15,15.8v0.1c0,9.4,7.3,15.8,15,15.8
			C146.8,72,153.2,66.2,153.2,56.3z"/>
		<path d="M167.5,66.7v7.9H164V22h3.5v24c3.2-4.8,7.8-9.1,15.1-9.1c8.9,0,17.9,7.1,17.9,19.1v0.1c0,12-9,19.2-17.9,19.2
			C175.3,75.4,170.5,71.3,167.5,66.7z M196.7,56.3v-0.1c0-9.6-6.7-15.8-14.4-15.8c-7.6,0-15,6.4-15,15.8v0.1c0,9.4,7.3,15.8,15,15.8
			C190.3,72,196.7,66.2,196.7,56.3z"/>
		<path d="M207.5,22h3.5v52.6h-3.5V22z"/>
		<path d="M83.6,60c1.5,7.7,7.5,12.2,14.1,12.2c5.7,0,9.6-2.5,12.6-5.8l2.4,2.2c-3.7,4-8.1,6.9-15.2,6.9c-9.6,0-18-7.7-18-19.2v-0.1
			C79.5,45.5,87,37,97,37c8.4,0,14.3,5.5,16.2,13.4c0.1,0.5,0.2,1,0.3,1.5L83.6,60z M109.1,49.8c-1.7-5.4-5.7-9.6-12.3-9.6
			c-7.3,0-12.9,6.1-13.5,14.3v2.2L109.1,49.8z"/>
		<path d="M222.1,60c1.5,7.7,7.5,12.2,14.1,12.2c5.7,0,9.6-2.5,12.6-5.8l2.4,2.2c-3.7,4-8.1,6.9-15.2,6.9c-9.7,0-18-7.7-18-19.2
			v-0.1c0-10.7,7.5-19.2,17.4-19.2c8.4,0,14.3,5.5,16.2,13.4c0.1,0.5,0.2,1,0.3,1.5L222.1,60z M247.7,49.8
			c-1.7-5.4-5.7-9.6-12.3-9.6c-7.3,0-12.9,6.1-13.5,14.3v2.2L247.7,49.8z"/>
	</g>
</g>
</svg>
